<?xml version="1.0" encoding="utf-8"?>
<!-- Generator: Adobe Illustrator 23.0.3, SVG Export Plug-In . SVG Version: 6.00 Build 0)  -->
<svg version="1.1" id="Layer_1" xmlns="http://www.w3.org/2000/svg" xmlns:xlink="http://www.w3.org/1999/xlink" x="0px" y="0px"
	 viewBox="0 0 126.3 118" style="enable-background:new 0 0 126.3 118;" xml:space="preserve">
<style type="text/css">
	.st0{fill:#009201;}
</style>
<g>
	<path class="st0" d="M50,8.5c0.4-0.4,1.1-1.3,1.4-1.7c1,3.6,5,4.9,6.5,8.2c1.6,3.2,4,6.6,3.2,10.3c-0.4,0.1-1.3,0.3-1.7,0.3
		c1.8,3,0.7,7.4,3.9,9.5c5.5,3.5,13,1.9,18.1,6.4c2.5-1.5,5.7-3,8.4-1c5.5,3.7,5.2,11,7.1,16.6c-0.9,2-1.9,3.9-3,5.8
		c-3.9-4-4-9.7-4.6-14.9c-0.3-3-3.5-4.8-6.2-3.7c-0.7,2.6-0.1,5.7-1.7,8c-1,1.9-3.2,3.6-2.7,6c0,2.1,1.9,3.2,3.2,4.4
		c-0.6,2.4-1.5,4.6-1.7,7.1c0.6,1.1,1.5,2.1,2.3,3.1c-0.4,0.8-1.3,2.5-1.7,3.3c-1.7-3.7-3.5-7.5-2.7-11.7c-2.6-1.6-5.5-2.9-7.3-5.5
		c-1.3-1.9-1.3-4.4-1.7-6.6c-4.3-0.7-9-0.6-12.8-3c-2.5-1.4-3.9-4.1-5.9-6.1c-3.2-1.4-6.8-1.9-9.5-4.2c-2.4-1.6-4.6-4.3-7.7-4
		c-1,2.3-1.1,4.9-0.7,7.4c0.8,2.4,3.3,3.4,5,5.1c-0.4,0.6-1,1.8-1.4,2.4c-3-1.8-6-4.3-6.2-8.1c-0.2-3.8-1.3-8.1,0.4-11.7
		c2.8-1.2,5.4,1.6,8.1,2.3c2.4-5.7,10.6-6.6,11.5-13.3c-3.7,1.5-8.1,1-11.5,3.5c-1-1.4-3.1-3.9-1-5.2c4.3-3,10-5.5,11.2-11.2
		C49,6.8,49.6,8,50,8.5z"/>
</g>
<g>
	<path d="M24.2,91.2c-2.1,0-3.2-0.9-3.2-2.8c0-0.9,0.3-1.6,0.8-2.1c0.6-0.6,1.4-0.9,2.4-0.9c0.9,0,1.8,0.1,2.5,0.4v4.1h1.2v1.2H24.2
		z M22.4,84.4c-0.2-0.2-0.2-0.3-0.2-0.6s0.1-0.4,0.2-0.6c0.2-0.2,0.3-0.2,0.6-0.2c0.2,0,0.4,0.1,0.6,0.2c0.2,0.2,0.2,0.3,0.2,0.6
		c0,0.2-0.1,0.4-0.2,0.6c-0.2,0.2-0.3,0.2-0.6,0.2C22.8,84.6,22.6,84.5,22.4,84.4z M25.1,86.8c-0.3-0.1-0.7-0.2-1.1-0.2
		c-0.4,0-0.8,0.2-1,0.5c-0.3,0.3-0.4,0.7-0.4,1.2c0,1.1,0.6,1.7,1.8,1.7h0.8V86.8z M24.4,84.4c-0.2-0.2-0.2-0.3-0.2-0.6
		s0.1-0.4,0.2-0.6c0.2-0.2,0.3-0.2,0.6-0.2c0.2,0,0.4,0.1,0.6,0.2c0.2,0.2,0.2,0.3,0.2,0.6c0,0.2-0.1,0.4-0.2,0.6s-0.3,0.2-0.6,0.2
		S24.6,84.5,24.4,84.4z"/>
	<path d="M27.7,89.9h1.7v-4.4h1.6v4.4h1.6v1.2h-4.9V89.9z M29.3,93.5c-0.2,0.2-0.3,0.2-0.6,0.2c-0.2,0-0.4-0.1-0.6-0.2
		s-0.2-0.3-0.2-0.6c0-0.2,0.1-0.4,0.2-0.6c0.2-0.2,0.3-0.2,0.6-0.2c0.2,0,0.4,0.1,0.6,0.2c0.2,0.2,0.2,0.4,0.2,0.6
		S29.4,93.4,29.3,93.5z M31.2,93.5c-0.2,0.2-0.3,0.2-0.6,0.2c-0.2,0-0.4-0.1-0.6-0.2s-0.2-0.3-0.2-0.6c0-0.2,0.1-0.4,0.2-0.6
		c0.2-0.2,0.3-0.2,0.6-0.2c0.2,0,0.4,0.1,0.6,0.2c0.2,0.2,0.2,0.4,0.2,0.6C31.5,93.2,31.4,93.4,31.2,93.5z"/>
	<path d="M32.4,91.2v-1.2h0.7c0.3,0,0.5,0,0.7,0.1c-0.4-0.3-0.7-0.9-0.7-1.7c0-0.8,0.3-1.5,0.8-2c0.6-0.6,1.4-0.9,2.3-0.9
		c1.8,0,2.7,0.9,2.7,2.8v3H32.4z M34.5,84.4c-0.2-0.2-0.2-0.3-0.2-0.6s0.1-0.4,0.2-0.6c0.2-0.2,0.3-0.2,0.6-0.2
		c0.2,0,0.4,0.1,0.6,0.2c0.2,0.2,0.2,0.3,0.2,0.6c0,0.2-0.1,0.4-0.2,0.6s-0.3,0.2-0.6,0.2S34.6,84.5,34.5,84.4z M37.3,88.3
		c0-1.1-0.4-1.7-1.3-1.7c-0.4,0-0.8,0.2-1.1,0.5c-0.3,0.3-0.4,0.7-0.4,1.2c0,1.1,0.6,1.7,1.8,1.7h0.9V88.3z M36.5,84.4
		c-0.2-0.2-0.2-0.3-0.2-0.6s0.1-0.4,0.2-0.6c0.2-0.2,0.3-0.2,0.6-0.2c0.2,0,0.4,0.1,0.6,0.2c0.2,0.2,0.2,0.3,0.2,0.6
		c0,0.2-0.1,0.4-0.2,0.6c-0.2,0.2-0.3,0.2-0.6,0.2C36.8,84.6,36.6,84.5,36.5,84.4z"/>
	<path d="M43.6,91.2L43.6,91.2c0,2-1,3-3,3c-0.4,0-0.7,0-1-0.1l0.1-1.3c0.3,0.1,0.7,0.1,1,0.1c0.4,0,0.8-0.1,1-0.4
		c0.2-0.3,0.3-0.7,0.3-1.3v-5.8h1.6v4.4H45c0.4,0,0.7-0.1,0.8-0.3c0.2-0.2,0.3-0.6,0.3-1.2v-2.2h1.6v2.2c0,0.6,0,1,0.1,1.2
		c0.1,0.2,0.3,0.4,0.7,0.4c0.6,0,1-0.5,1-1.5v-2.7H51v3c0,0.5,0.1,0.8,0.3,0.9c0.2,0.1,0.6,0.2,1.1,0.2h0.3c0.1-0.4,0.1-0.9,0.1-1.4
		c0-1.1-0.1-2.2-0.4-3.2l1.5-0.2c0.3,1.1,0.4,2.2,0.4,3.3c0,0.4,0,1-0.1,1.5h1.2v1.2h-3.3c-0.7,0-1.1-0.1-1.5-0.2
		c-0.3-0.1-0.6-0.3-0.8-0.7c-0.3,0.6-0.9,0.9-1.8,0.9c-0.9,0-1.4-0.3-1.6-0.9c-0.2,0.6-0.8,0.8-1.6,0.8H43.6z M48.6,84.4
		c-0.2-0.2-0.2-0.3-0.2-0.6s0.1-0.4,0.2-0.6c0.2-0.2,0.3-0.2,0.6-0.2c0.2,0,0.4,0.1,0.6,0.2c0.2,0.2,0.2,0.3,0.2,0.6
		c0,0.2-0.1,0.4-0.2,0.6s-0.3,0.2-0.6,0.2S48.8,84.5,48.6,84.4z M49.6,82.7c-0.1-0.1-0.2-0.3-0.2-0.5s0.1-0.4,0.2-0.5
		c0.1-0.1,0.3-0.2,0.5-0.2c0.2,0,0.4,0.1,0.5,0.2c0.1,0.1,0.2,0.3,0.2,0.5s-0.1,0.4-0.2,0.5c-0.1,0.1-0.3,0.2-0.5,0.2
		C49.9,82.9,49.8,82.8,49.6,82.7z M50.6,84.4c-0.2-0.2-0.2-0.3-0.2-0.6s0.1-0.4,0.2-0.6c0.2-0.2,0.3-0.2,0.6-0.2
		c0.2,0,0.4,0.1,0.6,0.2c0.2,0.2,0.2,0.3,0.2,0.6c0,0.2-0.1,0.4-0.2,0.6c-0.2,0.2-0.3,0.2-0.6,0.2C50.9,84.6,50.7,84.5,50.6,84.4z"
		/>
	<path d="M55.4,89.9h1.5v-7.2h1.6v8.5h-3.1V89.9z"/>
	<path d="M60.5,82.7H62v8.5h-1.6V82.7z"/>
	<path d="M69.1,91.2c-2.1,0-3.2-0.9-3.2-2.8c0-0.9,0.3-1.6,0.8-2.1c0.6-0.6,1.4-0.9,2.4-0.9c0.9,0,1.8,0.1,2.5,0.4v4.1h1.2v1.2H69.1
		z M67.3,84.4c-0.2-0.2-0.2-0.3-0.2-0.6s0.1-0.4,0.2-0.6c0.2-0.2,0.3-0.2,0.6-0.2c0.2,0,0.4,0.1,0.6,0.2c0.2,0.2,0.2,0.3,0.2,0.6
		c0,0.2-0.1,0.4-0.2,0.6c-0.2,0.2-0.3,0.2-0.6,0.2C67.7,84.6,67.5,84.5,67.3,84.4z M70,86.8c-0.3-0.1-0.7-0.2-1.1-0.2
		c-0.4,0-0.8,0.2-1,0.5c-0.3,0.3-0.4,0.7-0.4,1.2c0,1.1,0.6,1.7,1.8,1.7H70V86.8z M69.3,84.4c-0.2-0.2-0.2-0.3-0.2-0.6
		s0.1-0.4,0.2-0.6c0.2-0.2,0.3-0.2,0.6-0.2c0.2,0,0.4,0.1,0.6,0.2c0.2,0.2,0.2,0.3,0.2,0.6c0,0.2-0.1,0.4-0.2,0.6s-0.3,0.2-0.6,0.2
		S69.5,84.5,69.3,84.4z"/>
	<path d="M72.5,89.9H74v-7.2h1.6v3.1c0,0.7,0,1.2-0.1,1.8h0c0.3-0.7,0.7-1.3,1.2-1.7c0.5-0.4,1.1-0.6,1.8-0.6c0.8,0,1.5,0.2,1.9,0.7
		c0.4,0.5,0.6,1.1,0.6,2c0,0.7-0.2,1.3-0.5,1.8h1.3v1.2h-9.2V89.9z M77.5,89.9c1.3,0,1.9-0.6,1.9-1.7c0-1-0.4-1.6-1.2-1.6
		c-0.6,0-1.2,0.3-1.7,1c-0.5,0.6-0.8,1.4-0.9,2.3H77.5z M77.8,84.3c-0.2-0.2-0.2-0.4-0.2-0.6c0-0.2,0.1-0.4,0.2-0.6
		c0.2-0.2,0.4-0.2,0.6-0.2c0.2,0,0.4,0.1,0.6,0.2c0.2,0.2,0.2,0.4,0.2,0.6s-0.1,0.4-0.2,0.6c-0.2,0.2-0.4,0.2-0.6,0.2
		C78.1,84.5,77.9,84.4,77.8,84.3z"/>
	<path d="M81.5,91.2v-1.2h0.7c0.3,0,0.5,0,0.7,0.1c-0.4-0.3-0.7-0.9-0.7-1.7c0-0.8,0.3-1.5,0.8-2c0.6-0.6,1.4-0.9,2.3-0.9
		c1.8,0,2.7,0.9,2.7,2.8v3H81.5z M86.5,88.3c0-1.1-0.4-1.7-1.3-1.7c-0.4,0-0.8,0.2-1.1,0.5c-0.3,0.3-0.4,0.7-0.4,1.2
		c0,1.1,0.6,1.7,1.8,1.7h0.9V88.3z M84.6,84.2c-0.2-0.2-0.2-0.4-0.2-0.6c0-0.2,0.1-0.4,0.2-0.6c0.2-0.2,0.4-0.2,0.6-0.2
		c0.2,0,0.4,0.1,0.6,0.2c0.2,0.2,0.2,0.4,0.2,0.6s-0.1,0.4-0.2,0.6c-0.2,0.2-0.4,0.2-0.6,0.2C84.9,84.5,84.7,84.4,84.6,84.2z"/>
	<path d="M89.9,82.7h1.6v7.2h1.2v1.2h-2.8V82.7z"/>
	<path d="M92.5,89.9h4.6c0-0.3,0.1-0.6,0.1-0.9c0-0.8-0.2-1.4-0.5-1.7c-0.4-0.4-1-0.6-1.8-0.6c-0.4,0-0.9,0-1.4,0.1v-1.2
		c0.6-0.1,1.1-0.1,1.5-0.1c1.3,0,2.3,0.3,2.9,0.9c0.6,0.6,0.9,1.4,0.9,2.6c0,0.3,0,0.7,0,1h0.9v1.2h-7.2V89.9z"/>
	<path d="M99.5,91.2v-1.2h0.7c0.3,0,0.5,0,0.7,0.1c-0.4-0.3-0.7-0.9-0.7-1.7c0-0.8,0.3-1.5,0.8-2c0.6-0.6,1.4-0.9,2.3-0.9
		c1.8,0,2.7,0.9,2.7,2.8v3H99.5z M104.4,88.3c0-1.1-0.4-1.7-1.3-1.7c-0.4,0-0.8,0.2-1.1,0.5c-0.3,0.3-0.4,0.7-0.4,1.2
		c0,1.1,0.6,1.7,1.8,1.7h0.9V88.3z"/>
</g>
<g>
	<path d="M14.4,105.8c-0.6,0.5-1.3,0.8-2.3,0.8c-0.7,0-1.3-0.1-1.9-0.2l0.2-1.5c0.6,0.2,1.1,0.3,1.8,0.3c0.9,0,1.4-0.4,1.4-1.1
		c0-0.3-0.2-0.6-0.5-0.8c-0.1-0.1-0.5-0.2-1.2-0.5c-1.1-0.5-1.7-1.2-1.7-2.2c0-0.7,0.3-1.3,0.8-1.8c0.5-0.5,1.3-0.7,2.3-0.7
		c0.5,0,1,0.1,1.5,0.2l-0.1,1.4c-0.5-0.2-0.9-0.2-1.4-0.2c-0.9,0-1.3,0.3-1.3,1c0,0.3,0.2,0.6,0.5,0.8c0.1,0,0.5,0.2,1.2,0.5
		c1.2,0.5,1.7,1.2,1.7,2.2C15.2,104.7,15,105.3,14.4,105.8z"/>
	<path d="M20.2,106.4v-3.8c0-0.7-0.2-1-0.7-1c-0.4,0-0.7,0.2-1,0.6S18,103,18,103.6v2.9h-1.5v-8.8H18v2.6c0,0.5,0,0.9-0.1,1.2h0
		c0.4-0.7,1-1.1,2-1.1c1.2,0,1.8,0.6,1.8,1.9v4.2H20.2z"/>
	<path d="M26.5,106.4c0-0.4,0-0.7,0.1-1l0,0c-0.3,0.8-1,1.1-1.9,1.1c-0.5,0-0.9-0.2-1.3-0.5c-0.3-0.3-0.4-0.7-0.4-1.2
		c0-0.7,0.3-1.2,0.9-1.6c0.6-0.3,1.4-0.5,2.5-0.5v-0.2c0-0.4-0.1-0.6-0.2-0.8c-0.2-0.2-0.4-0.3-0.8-0.3c-0.6,0-1.2,0.1-1.8,0.4
		l-0.3-1.2c0.7-0.3,1.4-0.4,2.3-0.4c0.9,0,1.5,0.2,1.9,0.6c0.3,0.3,0.5,0.8,0.5,1.5v2.5c0,0.6,0,1.1,0,1.5H26.5z M26.4,103.8
		c-1.3,0-2,0.3-2,0.9c0,0.2,0.1,0.4,0.2,0.5c0.1,0.1,0.3,0.2,0.5,0.2c0.4,0,0.7-0.2,0.9-0.5c0.2-0.3,0.3-0.6,0.3-1V103.8z"/>
	<path d="M32.8,101.8c-1.1-0.2-1.7,0.5-1.7,2.1v2.4h-1.5v-6h1.5c0,0.4,0,0.8-0.1,1.2h0c0.4-1,1-1.4,1.9-1.3L32.8,101.8z"/>
	<path d="M37.3,106.4l-1.9-3v3h-1.5v-8.8h1.5v5.3l1.7-2.5h1.9l-2.1,2.7l2.2,3.2H37.3z"/>
	<path d="M41.6,99.3c-0.2,0.2-0.4,0.3-0.7,0.3c-0.3,0-0.5-0.1-0.7-0.3S40,98.9,40,98.7s0.1-0.5,0.3-0.7s0.4-0.3,0.7-0.3
		s0.5,0.1,0.7,0.3c0.2,0.2,0.3,0.4,0.3,0.7C41.9,98.9,41.8,99.1,41.6,99.3z M40.2,106.4v-6h1.5v6H40.2z"/>
	<path d="M46.6,106.4c0-0.4,0-0.7,0.1-1l0,0c-0.3,0.8-1,1.1-1.9,1.1c-0.5,0-0.9-0.2-1.3-0.5c-0.3-0.3-0.4-0.7-0.4-1.2
		c0-0.7,0.3-1.2,0.9-1.6c0.6-0.3,1.4-0.5,2.5-0.5v-0.2c0-0.4-0.1-0.6-0.2-0.8c-0.2-0.2-0.4-0.3-0.8-0.3c-0.6,0-1.2,0.1-1.8,0.4
		l-0.3-1.2c0.7-0.3,1.4-0.4,2.3-0.4c0.9,0,1.5,0.2,1.9,0.6c0.3,0.3,0.5,0.8,0.5,1.5v2.5c0,0.6,0,1.1,0,1.5H46.6z M46.4,103.8
		c-1.3,0-2,0.3-2,0.9c0,0.2,0.1,0.4,0.2,0.5c0.1,0.1,0.3,0.2,0.5,0.2c0.4,0,0.7-0.2,0.9-0.5c0.2-0.3,0.3-0.6,0.3-1V103.8z"/>
	<path d="M58.5,106c-0.8,0.3-1.8,0.5-2.8,0.5c-1.3,0-2.3-0.4-3-1.1c-0.7-0.7-1-1.6-1-2.9c0-1.3,0.4-2.4,1.2-3.2
		c0.8-0.8,1.9-1.2,3.3-1.2c0.8,0,1.6,0.1,2.3,0.4l-0.3,1.4c-0.6-0.3-1.3-0.4-2.1-0.4c-0.9,0-1.6,0.3-2.1,0.8c-0.4,0.5-0.6,1.2-0.6,2
		c0,0.9,0.2,1.5,0.7,2c0.4,0.5,1.1,0.7,1.9,0.7c0.4,0,0.7,0,1-0.1v-2.8h1.6V106z"/>
	<path d="M64.6,105.6c-0.6,0.6-1.3,0.9-2.2,0.9c-1.9,0-2.8-1-2.8-3c0-0.9,0.3-1.7,0.8-2.3c0.6-0.6,1.3-0.9,2.2-0.9
		c0.9,0,1.6,0.2,2,0.7c0.5,0.5,0.8,1.3,0.8,2.3C65.5,104.3,65.2,105,64.6,105.6z M62.6,101.6c-0.4,0-0.7,0.1-0.9,0.4
		c-0.3,0.3-0.4,0.8-0.4,1.3c0,1.2,0.4,1.8,1.3,1.8c0.4,0,0.7-0.2,1-0.5c0.3-0.3,0.4-0.8,0.4-1.4C63.9,102.2,63.5,101.6,62.6,101.6z"
		/>
	<path d="M69.8,106.4H68l-2.1-6h1.7l1,2.9c0.2,0.6,0.3,1.1,0.4,1.5h0c0.1-0.5,0.2-1,0.4-1.5l0.9-2.9h1.6L69.8,106.4z"/>
	<path d="M77.6,103.7h-3.7c0,1.1,0.5,1.6,1.6,1.6c0.6,0,1.2-0.1,1.7-0.4l0.2,1.2c-0.7,0.3-1.4,0.4-2.2,0.4c-2,0-2.9-1-2.9-3
		c0-0.9,0.3-1.7,0.8-2.2c0.5-0.6,1.2-0.9,2.1-0.9c0.8,0,1.5,0.2,1.9,0.7c0.4,0.4,0.6,1,0.6,1.8C77.7,103.2,77.7,103.5,77.6,103.7z
		 M76.2,102.7c0-0.8-0.3-1.2-1-1.2c-0.7,0-1.1,0.4-1.2,1.2H76.2z"/>
	<path d="M82.2,101.8c-1.1-0.2-1.7,0.5-1.7,2.1v2.4H79v-6h1.5c0,0.4,0,0.8-0.1,1.2h0c0.4-1,1-1.4,1.9-1.3L82.2,101.8z"/>
	<path d="M86.9,106.4v-3.8c0-0.7-0.2-1-0.7-1c-0.4,0-0.7,0.2-1,0.6c-0.3,0.4-0.4,0.8-0.4,1.3v2.9h-1.5v-6h1.5c0,0.4,0,0.8-0.1,1.1h0
		c0.4-0.8,1.1-1.2,2-1.2c1.2,0,1.8,0.6,1.8,1.9v4.2H86.9z"/>
	<path d="M94.6,105.6c-0.6,0.6-1.3,0.9-2.2,0.9c-1.9,0-2.8-1-2.8-3c0-0.9,0.3-1.7,0.8-2.3c0.6-0.6,1.3-0.9,2.2-0.9
		c0.9,0,1.6,0.2,2,0.7c0.5,0.5,0.8,1.3,0.8,2.3C95.5,104.3,95.2,105,94.6,105.6z M92.6,101.6c-0.4,0-0.7,0.1-0.9,0.4
		c-0.3,0.3-0.4,0.8-0.4,1.3c0,1.2,0.4,1.8,1.3,1.8c0.4,0,0.7-0.2,1-0.5c0.3-0.3,0.4-0.8,0.4-1.4C93.9,102.2,93.5,101.6,92.6,101.6z"
		/>
	<path d="M99.9,101.8c-1.1-0.2-1.7,0.5-1.7,2.1v2.4h-1.5v-6h1.5c0,0.4,0,0.8-0.1,1.2h0c0.4-1,1-1.4,1.9-1.3L99.9,101.8z"/>
	<path d="M104.1,106.4c0-0.4,0-0.7,0.1-1l0,0c-0.3,0.8-1,1.1-1.9,1.1c-0.5,0-0.9-0.2-1.3-0.5c-0.3-0.3-0.4-0.7-0.4-1.2
		c0-0.7,0.3-1.2,0.9-1.6c0.6-0.3,1.4-0.5,2.5-0.5v-0.2c0-0.4-0.1-0.6-0.2-0.8c-0.2-0.2-0.4-0.3-0.8-0.3c-0.6,0-1.2,0.1-1.8,0.4
		l-0.3-1.2c0.7-0.3,1.4-0.4,2.3-0.4c0.9,0,1.5,0.2,1.9,0.6c0.3,0.3,0.5,0.8,0.5,1.5v2.5c0,0.6,0,1.1,0,1.5H104.1z M104,103.8
		c-1.3,0-2,0.3-2,0.9c0,0.2,0.1,0.4,0.2,0.5c0.1,0.1,0.3,0.2,0.5,0.2c0.4,0,0.7-0.2,0.9-0.5c0.2-0.3,0.3-0.6,0.3-1V103.8z"/>
	<path d="M110.5,106.4c-0.4,0.1-0.9,0.2-1.3,0.2c-0.7,0-1.1-0.1-1.4-0.4c-0.2-0.3-0.4-0.8-0.4-1.5v-3h-1v-1.2h1v-1.8l1.5-0.4v2.2
		h1.5v1.2H109v2.6c0,0.4,0.1,0.6,0.2,0.8c0.1,0.1,0.3,0.2,0.6,0.2s0.5,0,0.7-0.1L110.5,106.4z"/>
	<path d="M116.6,103.7h-3.7c0,1.1,0.5,1.6,1.6,1.6c0.6,0,1.2-0.1,1.7-0.4l0.2,1.2c-0.7,0.3-1.4,0.4-2.2,0.4c-2,0-2.9-1-2.9-3
		c0-0.9,0.3-1.7,0.8-2.2c0.5-0.6,1.2-0.9,2.1-0.9c0.8,0,1.5,0.2,1.9,0.7c0.4,0.4,0.6,1,0.6,1.8C116.6,103.2,116.6,103.5,116.6,103.7
		z M115.1,102.7c0-0.8-0.3-1.2-1-1.2c-0.7,0-1.1,0.4-1.2,1.2H115.1z"/>
</g>
</svg>
